<?xml version="1.0" encoding="UTF-8" ?>
<!DOCTYPE svg PUBLIC "-//W3C//DTD SVG 1.1//EN" "http://www.w3.org/Graphics/SVG/1.1/DTD/svg11.dtd">
<svg width="1000pt" height="1000pt" viewBox="0 0 1000 1000" version="1.1" xmlns="http://www.w3.org/2000/svg">
<path fill="#ffffff" d=" M 0.00 0.00 L 1000.00 0.00 L 1000.00 1000.00 L 0.00 1000.00 L 0.00 0.00 Z" />
<path fill="#010101" d=" M 784.82 182.69 C 810.26 175.46 838.74 170.53 863.95 181.03 C 874.74 185.72 886.32 188.17 897.85 190.34 C 915.89 193.95 933.49 199.85 949.95 208.12 C 955.38 210.63 960.84 213.74 967.04 213.71 C 972.87 214.37 981.70 213.84 984.33 220.66 C 985.54 227.04 986.18 234.48 982.01 240.01 C 975.82 249.26 970.63 259.39 962.34 267.02 C 964.55 271.23 966.60 275.98 965.90 280.84 C 961.75 288.58 952.12 290.52 944.33 292.34 C 925.08 295.97 906.09 302.60 890.02 314.03 C 879.38 320.83 870.53 329.98 860.14 337.11 C 847.01 346.16 832.56 353.08 817.68 358.71 C 807.14 362.77 796.12 365.41 785.63 369.60 C 765.48 377.50 745.95 387.05 727.61 398.57 C 716.37 405.92 705.00 414.65 699.01 427.02 C 693.30 439.37 695.19 453.29 695.38 466.45 C 697.31 488.87 695.08 511.32 691.61 533.47 C 689.78 551.20 675.34 564.15 672.62 581.65 C 666.15 617.38 669.50 653.96 670.11 690.03 C 669.33 708.57 684.34 722.84 699.97 730.08 C 708.02 734.17 717.39 732.86 725.92 735.14 C 733.93 738.60 739.08 746.15 744.24 752.84 C 751.30 762.06 760.34 769.48 769.44 776.60 C 765.29 784.20 760.02 791.93 751.14 794.25 C 738.54 798.00 724.94 795.37 712.72 791.34 C 687.06 782.45 659.66 779.95 634.03 771.02 C 608.23 760.77 587.83 740.56 571.00 719.03 C 566.16 711.38 558.17 704.84 557.74 695.16 C 552.45 640.83 551.43 586.21 547.75 531.76 C 539.38 541.36 532.46 552.33 522.48 560.41 C 511.98 567.95 507.10 580.61 501.91 591.95 C 487.45 625.41 476.59 660.27 464.70 694.69 C 462.97 700.11 460.17 705.91 462.33 711.64 C 468.72 732.01 472.78 753.55 484.08 771.96 C 485.91 776.54 490.99 776.72 494.98 778.10 C 507.28 781.64 517.64 789.63 527.49 797.50 C 530.24 800.08 533.71 803.57 532.72 807.69 C 528.78 815.75 519.02 817.28 511.28 819.18 C 490.18 823.32 468.66 826.13 447.12 824.80 C 430.75 822.73 413.69 818.26 401.40 806.57 C 390.22 796.47 385.79 781.57 381.39 767.67 C 377.38 753.31 371.30 739.18 371.44 724.02 C 371.40 720.50 371.65 716.10 368.04 714.07 C 361.72 709.20 352.83 705.69 351.08 696.99 C 348.60 686.99 350.51 676.52 352.48 666.59 C 357.17 641.98 367.55 619.03 375.30 595.33 C 378.49 584.76 382.84 574.20 382.99 563.02 C 381.72 557.67 375.70 555.54 371.12 553.84 C 357.16 551.24 343.18 554.59 329.58 557.53 C 297.67 565.46 264.93 570.03 232.08 571.18 C 224.32 593.81 206.54 610.59 189.63 626.62 C 178.39 636.70 167.95 647.61 157.19 658.20 C 147.60 667.53 139.98 679.10 135.75 691.83 C 131.58 703.04 137.60 714.74 144.92 723.06 C 152.65 733.11 165.45 736.87 174.26 745.72 C 182.30 753.46 189.92 762.00 195.01 772.02 C 197.54 776.90 195.93 782.55 195.37 787.74 C 169.55 790.78 143.52 792.26 117.54 790.49 C 98.93 787.98 78.62 783.15 66.31 767.71 C 56.67 755.13 47.51 741.30 44.61 725.44 C 42.72 707.71 44.92 689.91 44.54 672.16 C 37.77 627.45 17.84 584.82 18.91 538.97 C 18.12 525.44 28.06 514.40 27.86 500.98 C 29.51 483.86 18.74 469.03 16.48 452.56 C 13.42 430.06 14.51 406.95 19.76 384.85 C 25.26 357.95 36.07 331.33 55.26 311.25 C 64.26 301.52 75.93 295.03 87.02 288.04 C 100.97 279.46 114.71 270.42 129.72 263.74 C 167.83 246.53 206.40 229.71 246.90 218.92 C 270.28 212.25 294.96 213.28 318.97 215.13 C 352.06 217.31 384.19 225.98 416.58 232.51 C 432.18 235.52 447.25 240.63 462.68 244.32 C 483.14 248.30 504.02 244.39 524.11 240.17 C 548.56 234.42 572.96 228.43 597.61 223.58 C 615.17 219.89 633.24 217.76 650.00 211.01 C 663.68 205.44 677.73 200.78 692.06 197.13 C 722.32 188.33 754.54 191.40 784.82 182.69 Z" />
</svg>
